<?xml version="1.0" encoding="UTF-8" standalone="no"?><svg xmlns="http://www.w3.org/2000/svg" xmlns:xlink="http://www.w3.org/1999/xlink" clip-rule="evenodd" stroke-miterlimit="4.00" viewBox="0 0 226 38"><desc>SVG generated by Keynote</desc><defs></defs><g transform="matrix(1.00, 0.00, -0.00, -1.00, 0.0, 38.0)"><text xml:space="preserve" font-family="Helvetica-Bold" font-weight="bold" font-size="36.0" fill="#FF2600" transform="matrix(1.00, 0.00, -0.00, -1.00, -1.0, 10.0)">B</text><text xml:space="preserve" font-family="Helvetica-Bold" font-weight="bold" font-size="36.0" fill="#FF2600" transform="matrix(1.00, 0.00, -0.00, -1.00, 25.0, 10.0)">a</text><text xml:space="preserve" font-family="Helvetica-Bold" font-weight="bold" font-size="36.0" fill="#FF2600" transform="matrix(1.00, 0.00, -0.00, -1.00, 45.0, 10.0)">c</text><text xml:space="preserve" font-family="Helvetica-Bold" font-weight="bold" font-size="36.0" fill="#FF2600" transform="matrix(1.00, 0.00, -0.00, -1.00, 65.1, 10.0)">k</text><text xml:space="preserve" font-family="Helvetica-Bold" font-weight="bold" font-size="36.0" fill="#FF2600" transform="matrix(1.00, 0.00, -0.00, -1.00, 85.1, 10.0)">t</text><text xml:space="preserve" font-family="Helvetica-Bold" font-weight="bold" font-size="36.0" fill="#FF2600" transform="matrix(1.00, 0.00, -0.00, -1.00, 97.1, 10.0)">r</text><text xml:space="preserve" font-family="Helvetica-Bold" font-weight="bold" font-size="36.0" fill="#FF2600" transform="matrix(1.00, 0.00, -0.00, -1.00, 111.1, 10.0)">a</text><text xml:space="preserve" font-family="Helvetica-Bold" font-weight="bold" font-size="36.0" fill="#FF2600" transform="matrix(1.00, 0.00, -0.00, -1.00, 131.1, 10.0)">c</text><text xml:space="preserve" font-family="Helvetica-Bold" font-weight="bold" font-size="36.0" fill="#FF2600" transform="matrix(1.00, 0.00, -0.00, -1.00, 151.2, 10.0)">k</text><text xml:space="preserve" font-family="Helvetica-Bold" font-weight="bold" font-size="36.0" fill="#FF2600" transform="matrix(1.00, 0.00, -0.00, -1.00, 171.2, 10.0)">i</text><text xml:space="preserve" font-family="Helvetica-Bold" font-weight="bold" font-size="36.0" fill="#FF2600" transform="matrix(1.00, 0.00, -0.00, -1.00, 181.2, 10.0)">n</text><text xml:space="preserve" font-family="Helvetica-Bold" font-weight="bold" font-size="36.0" fill="#FF2600" transform="matrix(1.00, 0.00, -0.00, -1.00, 203.2, 10.0)">g</text></g></svg>